<?xml version="1.0" encoding="utf-8"?>
<!-- Generator: Adobe Illustrator 28.2.0, SVG Export Plug-In . SVG Version: 6.00 Build 0)  -->
<svg version="1.1" id="Layer_1" xmlns="http://www.w3.org/2000/svg" xmlns:xlink="http://www.w3.org/1999/xlink" x="0px" y="0px"
	 viewBox="0 0 841.9 258.1" style="enable-background:new 0 0 841.9 258.1;" xml:space="preserve">
<style type="text/css">
	.st0{fill:#E50B7B;}
	.st1{fill:#FFFFFF;}
</style>
<g>
	<circle class="st0" cx="120.7" cy="125.6" r="83.1"/>
	<path class="st1" d="M382.4,73c0,23.7-17.7,39.5-41.4,39.5c-19.7,0-31.9-10.9-31.9-30.5c0-23.7,17.7-39.5,41.4-39.5
		C370.2,42.4,382.4,53.3,382.4,73z M357.5,74.4c0-8.3-2.9-12.6-9.6-12.6c-9.2,0-13.9,8.2-13.9,18.7c0,8.3,2.9,12.7,9.6,12.7
		C352.8,93.2,357.5,85,357.5,74.4z"/>
	<path class="st1" d="M410.1,92.3h24.3l-2.7,19h-49l9.5-67.5h24.8L410.1,92.3z"/>
	<path class="st1" d="M505.6,94.3l-2.2,16.2c-3.6,1.1-7.8,2-13.6,2c-10.4,0-15.4-5.7-23.5-26l-3.5,24.7h-24.8l9.5-67.5h24.8L468.8,69
		c7.4-5,14.5-12.9,16.1-25.3h24.4c-1.6,11.6-8.8,24-22,32C494.9,94.7,500.5,94.3,505.6,94.3z"/>
	<path class="st1" d="M582.2,111.2h-24.8l-1.3-11.3h-19l-4.4,11.3h-24.9l31.8-67.5h29.4L582.2,111.2z M543.4,84.2h10.8l-2.5-20.8L543.4,84.2z"/>
	<path class="st1" d="M735.4,73c0,23.7-17.7,39.5-41.4,39.5c-19.7,0-31.9-10.9-31.9-30.5c0-23.7,17.7-39.5,41.4-39.5
		C723.1,42.4,735.4,53.3,735.4,73z M710.4,74.4c0-8.3-2.9-12.6-9.6-12.6c-9.2,0-13.9,8.2-13.9,18.7c0,8.3,2.9,12.7,9.6,12.7
		C705.7,93.2,710.4,85,710.4,74.4z"/>
	<path class="st1" d="M775.8,111.2h-24.8l6.8-48.2h-18.3l2.7-19.3h61.2L800.8,63h-18.2L775.8,111.2z"/>
	<path class="st1" d="M318.9,189.1h24.3l-2.7,19h-49l9.5-67.5h24.8L318.9,189.1z"/>
	<path class="st1" d="M419.9,208.1h-24.8l-1.3-11.3h-19l-4.4,11.3h-24.9l31.8-67.5h29.4L419.9,208.1z M381.2,181H392l-2.5-20.8L381.2,181z"/>
	<path class="st1" d="M492.2,140.6L463.1,184l-3.4,24.1h-24.8l3.4-24.1l-17.2-43.4h25.1l7,24.4l14.2-24.4H492.2z"/>
	<g>
		<circle class="st1" cx="94.1" cy="84.8" r="9.9"/>
		<circle class="st1" cx="94.1" cy="112.1" r="9.9"/>
		<circle class="st1" cx="94.1" cy="139.4" r="9.9"/>
		<circle class="st1" cx="94.1" cy="166.7" r="9.9"/>
		<circle class="st1" cx="118.5" cy="98.7" r="9.9"/>
		<circle class="st1" cx="118.5" cy="126" r="9.9"/>
		<circle class="st1" cx="118.5" cy="153.3" r="9.9"/>
		<circle class="st1" cx="141.7" cy="112.3" r="9.9"/>
		<circle class="st1" cx="141.7" cy="139.6" r="9.9"/>
		<circle class="st1" cx="164.9" cy="126" r="9.9"/>
	</g>
	<path class="st1" d="M273.7,43.2L273.7,43.2l-0.5,0c-0.1,0-0.1,0-0.2,0c-0.3,0-0.6,0-0.9,0H250c0,0-0.3,1.7-9.7,68h24.3l2.4-17.2
		c17.8,1.5,40.1-6,40.1-28C307.1,48.5,289.2,43.4,273.7,43.2z M269.3,76.2l2-14.1c3.5-0.5,12.3,0.2,12.3,6.1
		C283.7,75.9,273.4,76.5,269.3,76.2z"/>
	<path class="st1" d="M260.1,140.1L260.1,140.1l-0.5,0c-0.1,0-0.1,0-0.2,0c-0.3,0-0.6,0-0.9,0h-22.1c0,0-0.3,1.7-9.7,68H251l2.4-17.2
		c17.8,1.5,40.1-6,40.1-28C293.5,145.4,275.7,140.2,260.1,140.1z M255.8,173.1l2-14.1c3.5-0.5,12.3,0.2,12.3,6.1
		C270.2,172.8,259.9,173.3,255.8,173.1z"/>
	<path class="st1" d="M657.6,73.4c0-18.6-14-29.2-35.6-29.6v0h-0.9c-0.1,0-0.3,0-0.4,0c-0.3,0-0.6,0-0.9,0h-23.6l-9.4,63.7l-0.6,4h20.9
		c0.3,0,0.5,0,0.8,0c0.3,0,0.6,0,1,0h0.3v0C628.6,111.2,657.6,105.5,657.6,73.4z M616.5,93c-0.9,0-2.1,0-2.9-0.1l4.6-31.3
		c0.8-0.1,2.1-0.1,3-0.1c7.6,0,11.5,4.5,11.5,12.3C632.7,84,627.9,93,616.5,93z"/>
</g>
</svg>
