<?xml version="1.0" encoding="utf-8"?>
<!-- Generator: Adobe Illustrator 28.2.0, SVG Export Plug-In . SVG Version: 6.00 Build 0)  -->
<svg version="1.1" id="Layer_1" xmlns="http://www.w3.org/2000/svg" xmlns:xlink="http://www.w3.org/1999/xlink" x="0px" y="0px"
	 viewBox="0 0 841.9 258.1" style="enable-background:new 0 0 841.9 258.1;" xml:space="preserve">
<style type="text/css">
	.st0{fill:#E50B7B;}
	.st1{fill:#FFFFFF;}
</style>
<g>
	<circle class="st0" cx="120.7" cy="125.6" r="83.1"/>
	<g>
		<path class="st0" d="M534.4,177.6H527l2-14.4h-5.5l0.8-5.8h18.3l-0.8,5.8h-5.4L534.4,177.6z"/>
		<path class="st0" d="M564.1,157.4l-2.8,20.2h-7.3l1-7.5h-4.8l-1,7.5h-7.3l2.8-20.2h7.3l-1,7.2h4.8l1-7.2H564.1z"/>
		<path class="st0" d="M573.7,163.1l-0.2,1.8h7.5l-0.7,5.3h-7.5l-0.2,1.8h8.6l-0.8,5.6h-15.8l2.8-20.2h15.8l-0.8,5.7H573.7z"/>
		<path class="st0" d="M609.5,166.4l-1.4,10.1c-2.1,1-5.1,1.5-7.8,1.5c-6.4,0-9.9-3.3-9.9-9.1c0-7.1,5.3-11.9,13.2-11.9
			c2.6,0,4.7,0.5,6.3,1l-1.8,5.5c-1.1-0.4-2.5-0.7-4.2-0.7c-4.5,0-6,2.5-6,5.2c0,3,1.8,4.1,3.6,4.1c0.3,0,0.5,0,0.7-0.1l0.8-5.7
			H609.5z"/>
		<path class="st0" d="M630.8,177.6h-7.4l-0.4-3.4h-5.7l-1.3,3.4h-7.4l9.5-20.2h8.8L630.8,177.6z M619.3,169.5h3.2l-0.7-6.2
			L619.3,169.5z"/>
		<path class="st0" d="M656.6,157.4l-2.8,20.2h-6.9l1.4-10.3l-4.7,6.4h-0.2l-2.9-6.4l-1.4,10.3h-6.9l2.8-20.2h7.4l2.4,6.6l4.3-6.6
			H656.6z"/>
		<path class="st0" d="M664.4,177.6H657l2.8-20.2h7.4L664.4,177.6z"/>
		<path class="st0" d="M690.3,157.4l-2.8,20.2h-7l-4.6-10.4l-1.5,10.4h-6.8l2.8-20.2h7.4l4.2,10.3l1.4-10.3H690.3z"/>
		<path class="st0" d="M710.3,166.4l-1.4,10.1c-2.1,1-5.1,1.5-7.8,1.5c-6.4,0-9.9-3.3-9.9-9.1c0-7.1,5.3-11.9,13.2-11.9
			c2.6,0,4.7,0.5,6.3,1l-1.8,5.5c-1.1-0.4-2.5-0.7-4.2-0.7c-4.5,0-6,2.5-6,5.2c0,3,1.8,4.1,3.6,4.1c0.3,0,0.5,0,0.7-0.1l0.8-5.7
			H710.3z"/>
		<path class="st0" d="M740.5,157.4l-2.8,20.2h-7.3l1-7.5h-4.8l-1,7.5h-7.3l2.8-20.2h7.3l-1,7.2h4.8l1-7.2H740.5z"/>
		<path class="st0" d="M762.1,157.4l-1.7,12.2c-0.8,5.7-4.6,8.4-10.4,8.4c-5.8,0-8.9-2.6-8.1-8.4l1.7-12.2h7.4l-1.7,12.1
			c-0.2,1.4,0,2.5,1.5,2.5c1.6,0,2-1.1,2.2-2.5l1.7-12.1H762.1z"/>
		<path class="st0" d="M769,177.9c-2.5,0-5.1-0.2-6.7-0.4l2.8-20c1.6-0.2,4.3-0.5,6.7-0.5c4.7,0,9.7,1,9.7,5.4c0,2.6-1.6,4.1-3.3,5
			c1.1,0.2,3,1.5,3,4C781.2,176.8,775.5,177.9,769,177.9z M774.4,170.8c0-1.4-1.6-1.6-2.7-1.6c-0.3,0-0.9,0-1.2,0.1l-0.5,3.6
			c0.2,0,1,0,1.3,0C772.5,172.8,774.4,172.5,774.4,170.8z M771.1,165.3c0.2,0,0.7,0,1,0c1.2,0,2.7-0.3,2.7-2c0-1.1-1.2-1.4-2.1-1.4
			c-0.3,0-0.9,0-1.2,0.1L771.1,165.3z"/>
	</g>
	<g>
		<path class="st0" d="M523.8,193.3l-0.4,2.5h6.7l-0.8,5.9h-6.7l-0.8,6h-7.3l2.8-20.2h15l-0.8,5.7H523.8z"/>
		<path class="st0" d="M554.1,196.3c0,7.1-5.3,11.8-12.4,11.8c-5.9,0-9.5-3.3-9.5-9.1c0-7.1,5.3-11.8,12.4-11.8
			C550.5,187.1,554.1,190.4,554.1,196.3z M546.7,196.7c0-2.5-0.9-3.8-2.9-3.8c-2.7,0-4.1,2.4-4.1,5.6c0,2.5,0.9,3.8,2.9,3.8
			C545.3,202.3,546.7,199.9,546.7,196.7z"/>
		<path class="st0" d="M569.8,200.3c1.8,2.8,3.6,2.4,4.8,2.4l-0.7,4.8c-1.1,0.3-2.3,0.6-4.1,0.6c-2.9,0-4.4-1.5-6.6-6.7
			c-0.1,0-0.2,0-0.4,0l-0.9,6.3H555l2.8-20c1.7-0.3,4.9-0.6,7.5-0.6c5.1,0,10,1.3,10,6.1C575.2,197.3,572.9,199.3,569.8,200.3z
			 M567.9,194.4c0-1.5-1.7-1.8-2.9-1.8c-0.3,0-0.6,0-0.8,0.1l-0.6,4c0.2,0,0.4,0,0.6,0C565.6,196.7,567.9,196.4,567.9,194.4z"/>
		<path class="st0" d="M589.9,208.1c-2.5,0-5.1-0.2-6.7-0.4l2.8-20c1.6-0.2,4.3-0.5,6.7-0.5c4.7,0,9.7,1,9.7,5.4
			c0,2.6-1.6,4.1-3.3,5c1.1,0.2,3,1.5,3,4C602.2,206.9,596.5,208.1,589.9,208.1z M595.3,200.9c0-1.4-1.6-1.6-2.7-1.6
			c-0.3,0-0.9,0-1.2,0.1L591,203c0.2,0,1,0,1.3,0C593.5,203,595.3,202.6,595.3,200.9z M592,195.4c0.2,0,0.7,0,1,0
			c1.2,0,2.7-0.3,2.7-2c0-1.1-1.2-1.4-2.1-1.4c-0.3,0-0.9,0-1.2,0.1L592,195.4z"/>
		<path class="st0" d="M611.8,202h7.2l-0.8,5.7h-14.6l2.8-20.2h7.4L611.8,202z"/>
		<path class="st0" d="M642.2,196.3c0,7.1-5.3,11.8-12.4,11.8c-5.9,0-9.5-3.3-9.5-9.1c0-7.1,5.3-11.8,12.4-11.8
			C638.5,187.1,642.2,190.4,642.2,196.3z M634.8,196.7c0-2.5-0.9-3.8-2.9-3.8c-2.7,0-4.1,2.4-4.1,5.6c0,2.5,0.9,3.8,2.9,3.8
			C633.3,202.3,634.8,199.9,634.8,196.7z"/>
		<path class="st0" d="M659.4,201.4l0.7,5.4c-1.9,0.6-4.4,1.3-7,1.3c-5.8,0-9.5-3.2-9.5-9.2c0-7,5.1-11.8,12.3-11.8
			c2.6,0,5,0.6,6.7,1.3l-2.2,5.3c-0.9-0.4-2.2-0.7-3.5-0.7c-3.5,0-5.6,2.2-5.6,5.1c0,2.7,1.7,4,4.5,4
			C656.9,202.1,658.4,201.8,659.4,201.4z"/>
		<path class="st0" d="M682.1,202.7l-0.7,4.8c-1.1,0.3-2.3,0.6-4.1,0.6c-3.1,0-4.6-1.7-7-7.8l-1,7.4h-7.4l2.8-20.2h7.4l-1.1,7.5
			c2.2-1.5,4.3-3.8,4.8-7.5h7.3c-0.5,3.5-2.6,7.2-6.6,9.6C678.9,202.8,680.5,202.7,682.1,202.7z"/>
		<path class="st0" d="M698.4,201.4l0.7,5.4c-1.9,0.6-4.4,1.3-7,1.3c-5.8,0-9.5-3.2-9.5-9.2c0-7,5.1-11.8,12.3-11.8
			c2.6,0,5,0.6,6.7,1.3l-2.2,5.3c-0.9-0.4-2.2-0.7-3.6-0.7c-3.5,0-5.6,2.2-5.6,5.1c0,2.7,1.7,4,4.5,4
			C696,202.1,697.4,201.8,698.4,201.4z"/>
		<path class="st0" d="M723.2,187.5l-2.8,20.2h-7.3l1-7.5h-4.8l-1,7.5h-7.3l2.8-20.2h7.3l-1,7.2h4.8l1-7.2H723.2z"/>
		<path class="st0" d="M743.9,207.7h-7.4l-0.4-3.4h-5.7l-1.3,3.4h-7.4l9.5-20.2h8.8L743.9,207.7z M732.3,199.6h3.2l-0.7-6.2
			L732.3,199.6z"/>
		<path class="st0" d="M752.5,207.7h-7.4l2.8-20.2h7.4L752.5,207.7z"/>
		<path class="st0" d="M778.4,187.5l-2.8,20.2h-7l-4.6-10.4l-1.5,10.4h-6.8l2.8-20.2h7.4l4.2,10.3l1.4-10.3H778.4z"/>
	</g>
	<path d="M382.4,73c0,23.7-17.7,39.5-41.4,39.5c-19.7,0-31.9-10.9-31.9-30.5c0-23.7,17.7-39.5,41.4-39.5
		C370.2,42.4,382.4,53.3,382.4,73z M357.5,74.4c0-8.3-2.9-12.6-9.6-12.6c-9.2,0-13.9,8.2-13.9,18.7c0,8.3,2.9,12.7,9.6,12.7
		C352.8,93.2,357.5,85,357.5,74.4z"/>
	<path d="M410.1,92.3h24.3l-2.7,19h-49l9.5-67.5h24.8L410.1,92.3z"/>
	<path d="M505.6,94.3l-2.2,16.2c-3.6,1.1-7.8,2-13.6,2c-10.4,0-15.4-5.7-23.5-26l-3.5,24.7h-24.8l9.5-67.5h24.8L468.8,69
		c7.4-5,14.5-12.9,16.1-25.3h24.4c-1.6,11.6-8.8,24-22,32C494.9,94.7,500.5,94.3,505.6,94.3z"/>
	<path d="M582.2,111.2h-24.8l-1.3-11.3h-19l-4.4,11.3h-24.9l31.8-67.5h29.4L582.2,111.2z M543.4,84.2h10.8l-2.5-20.8L543.4,84.2z"/>
	<path d="M735.4,73c0,23.7-17.7,39.5-41.4,39.5c-19.7,0-31.9-10.9-31.9-30.5c0-23.7,17.7-39.5,41.4-39.5
		C723.1,42.4,735.4,53.3,735.4,73z M710.4,74.4c0-8.3-2.9-12.6-9.6-12.6c-9.2,0-13.9,8.2-13.9,18.7c0,8.3,2.9,12.7,9.6,12.7
		C705.7,93.2,710.4,85,710.4,74.4z"/>
	<path d="M775.8,111.2h-24.8l6.8-48.2h-18.3l2.7-19.3h61.2L800.8,63h-18.2L775.8,111.2z"/>
	<path d="M318.9,189.1h24.3l-2.7,19h-49l9.5-67.5h24.8L318.9,189.1z"/>
	<path d="M419.9,208.1h-24.8l-1.3-11.3h-19l-4.4,11.3h-24.9l31.8-67.5h29.4L419.9,208.1z M381.2,181H392l-2.5-20.8L381.2,181z"/>
	<path d="M492.2,140.6L463.1,184l-3.4,24.1h-24.8l3.4-24.1l-17.2-43.4h25.1l7,24.4l14.2-24.4H492.2z"/>
	<g>
		<circle class="st1" cx="94.1" cy="84.8" r="9.9"/>
		<circle class="st1" cx="94.1" cy="112.1" r="9.9"/>
		<circle class="st1" cx="94.1" cy="139.4" r="9.9"/>
		<circle class="st1" cx="94.1" cy="166.7" r="9.9"/>
		<circle class="st1" cx="118.5" cy="98.7" r="9.9"/>
		<circle class="st1" cx="118.5" cy="126" r="9.9"/>
		<circle class="st1" cx="118.5" cy="153.3" r="9.9"/>
		<circle class="st1" cx="141.7" cy="112.3" r="9.9"/>
		<circle class="st1" cx="141.7" cy="139.6" r="9.9"/>
		<circle class="st1" cx="164.9" cy="126" r="9.9"/>
	</g>
	<path d="M273.7,43.2L273.7,43.2l-0.5,0c-0.1,0-0.1,0-0.2,0c-0.3,0-0.6,0-0.9,0H250c0,0-0.3,1.7-9.7,68h24.3l2.4-17.2
		c17.8,1.5,40.1-6,40.1-28C307.1,48.5,289.2,43.4,273.7,43.2z M269.3,76.2l2-14.1c3.5-0.5,12.3,0.2,12.3,6.1
		C283.7,75.9,273.4,76.5,269.3,76.2z"/>
	<path d="M260.1,140.1L260.1,140.1l-0.5,0c-0.1,0-0.1,0-0.2,0c-0.3,0-0.6,0-0.9,0h-22.1c0,0-0.3,1.7-9.7,68H251l2.4-17.2
		c17.8,1.5,40.1-6,40.1-28C293.5,145.4,275.7,140.2,260.1,140.1z M255.8,173.1l2-14.1c3.5-0.5,12.3,0.2,12.3,6.1
		C270.2,172.8,259.9,173.3,255.8,173.1z"/>
	<path d="M657.6,73.4c0-18.6-14-29.2-35.6-29.6v0h-0.9c-0.1,0-0.3,0-0.4,0c-0.3,0-0.6,0-0.9,0h-23.6l-9.4,63.7l-0.6,4h20.9
		c0.3,0,0.5,0,0.8,0c0.3,0,0.6,0,1,0h0.3v0C628.6,111.2,657.6,105.5,657.6,73.4z M616.5,93c-0.9,0-2.1,0-2.9-0.1l4.6-31.3
		c0.8-0.1,2.1-0.1,3-0.1c7.6,0,11.5,4.5,11.5,12.3C632.7,84,627.9,93,616.5,93z"/>
</g>
</svg>
